<?xml version="1.0" encoding="UTF-8" standalone="no"?>
<!DOCTYPE svg PUBLIC "-//W3C//DTD SVG 1.1//EN"
 "http://www.w3.org/Graphics/SVG/1.1/DTD/svg11.dtd">
<!-- Generated by graphviz version 2.40.1 (20161225.0304)
 -->
<!-- Title: snakemake_dag Pages: 1 -->
<svg width="160pt" height="188pt"
 viewBox="0.00 0.00 159.50 188.00" xmlns="http://www.w3.org/2000/svg" xmlns:xlink="http://www.w3.org/1999/xlink">
<g id="graph0" class="graph" transform="scale(1 1) rotate(0) translate(4 184)">
<title>snakemake_dag</title>
<polygon fill="#ffffff" stroke="transparent" points="-4,4 -4,-184 155.5,-184 155.5,4 -4,4"/>
<!-- 0 -->
<g id="node1" class="node">
<title>0</title>
<path fill="none" stroke="#59d856" stroke-width="2" d="M96.5,-36C96.5,-36 66.5,-36 66.5,-36 60.5,-36 54.5,-30 54.5,-24 54.5,-24 54.5,-12 54.5,-12 54.5,-6 60.5,0 66.5,0 66.5,0 96.5,0 96.5,0 102.5,0 108.5,-6 108.5,-12 108.5,-12 108.5,-24 108.5,-24 108.5,-30 102.5,-36 96.5,-36"/>
<text text-anchor="middle" x="81.5" y="-15.5" font-family="sans" font-size="10.00" fill="#000000">all</text>
</g>
<!-- 1 -->
<g id="node2" class="node">
<title>1</title>
<path fill="none" stroke="#d6d856" stroke-width="2" d="M96.5,-108C96.5,-108 66.5,-108 66.5,-108 60.5,-108 54.5,-102 54.5,-96 54.5,-96 54.5,-84 54.5,-84 54.5,-78 60.5,-72 66.5,-72 66.5,-72 96.5,-72 96.5,-72 102.5,-72 108.5,-78 108.5,-84 108.5,-84 108.5,-96 108.5,-96 108.5,-102 102.5,-108 96.5,-108"/>
<text text-anchor="middle" x="81.5" y="-87.5" font-family="sans" font-size="10.00" fill="#000000">multiqc</text>
</g>
<!-- 1&#45;&gt;0 -->
<g id="edge1" class="edge">
<title>1&#45;&gt;0</title>
<path fill="none" stroke="#c0c0c0" stroke-width="2" d="M81.5,-71.8314C81.5,-64.131 81.5,-54.9743 81.5,-46.4166"/>
<polygon fill="#c0c0c0" stroke="#c0c0c0" stroke-width="2" points="85.0001,-46.4132 81.5,-36.4133 78.0001,-46.4133 85.0001,-46.4132"/>
</g>
<!-- 2 -->
<g id="node3" class="node">
<title>2</title>
<path fill="none" stroke="#56d8d8" stroke-width="2" d="M67,-180C67,-180 12,-180 12,-180 6,-180 0,-174 0,-168 0,-168 0,-156 0,-156 0,-150 6,-144 12,-144 12,-144 67,-144 67,-144 73,-144 79,-150 79,-156 79,-156 79,-168 79,-168 79,-174 73,-180 67,-180"/>
<text text-anchor="middle" x="39.5" y="-159.5" font-family="sans" font-size="10.00" fill="#000000">fastq_screen</text>
</g>
<!-- 2&#45;&gt;1 -->
<g id="edge3" class="edge">
<title>2&#45;&gt;1</title>
<path fill="none" stroke="#c0c0c0" stroke-width="2" d="M50.0984,-143.8314C54.7877,-135.7925 60.4028,-126.1666 65.5798,-117.2918"/>
<polygon fill="#c0c0c0" stroke="#c0c0c0" stroke-width="2" points="68.7434,-118.8146 70.7589,-108.4133 62.6969,-115.2875 68.7434,-118.8146"/>
</g>
<!-- 3 -->
<g id="node4" class="node">
<title>3</title>
<path fill="none" stroke="#d85656" stroke-width="2" d="M139.5,-180C139.5,-180 109.5,-180 109.5,-180 103.5,-180 97.5,-174 97.5,-168 97.5,-168 97.5,-156 97.5,-156 97.5,-150 103.5,-144 109.5,-144 109.5,-144 139.5,-144 139.5,-144 145.5,-144 151.5,-150 151.5,-156 151.5,-156 151.5,-168 151.5,-168 151.5,-174 145.5,-180 139.5,-180"/>
<text text-anchor="middle" x="124.5" y="-159.5" font-family="sans" font-size="10.00" fill="#000000">fastqc</text>
</g>
<!-- 3&#45;&gt;1 -->
<g id="edge2" class="edge">
<title>3&#45;&gt;1</title>
<path fill="none" stroke="#c0c0c0" stroke-width="2" d="M113.6493,-143.8314C108.7977,-135.7079 102.9783,-125.9637 97.632,-117.0118"/>
<polygon fill="#c0c0c0" stroke="#c0c0c0" stroke-width="2" points="100.6292,-115.2041 92.4968,-108.4133 94.6194,-118.7933 100.6292,-115.2041"/>
</g>
</g>
</svg>
